<svg width="16" height="16" viewBox="0 0 16 16" fill="none" xmlns="http://www.w3.org/2000/svg">
<g clip-path="url(#clip0_305_2033)">
<path d="M5.60038 8C5.60038 6.67457 6.67461 5.59981 8.00009 5.59981C9.32558 5.59981 10.4004 6.67457 10.4004 8C10.4004 9.32543 9.32558 10.4002 8.00009 10.4002C6.67461 10.4002 5.60038 9.32543 5.60038 8ZM4.30283 8C4.30283 10.0419 5.95809 11.6971 8.00009 11.6971C10.0421 11.6971 11.6974 10.0419 11.6974 8C11.6974 5.95808 10.0421 4.30289 8.00009 4.30289C5.95809 4.30289 4.30289 5.95796 4.30289 8H4.30283ZM10.9797 4.15629C10.9797 4.32718 11.0303 4.49424 11.1252 4.63636C11.2201 4.77849 11.355 4.88928 11.5128 4.95474C11.6707 5.0202 11.8444 5.03737 12.012 5.0041C12.1796 4.97083 12.3336 4.88861 12.4545 4.76782C12.5754 4.64704 12.6577 4.49312 12.6911 4.32554C12.7245 4.15795 12.7075 3.98422 12.6422 3.82632C12.5768 3.66842 12.4661 3.53344 12.3241 3.43844C12.182 3.34345 12.015 3.29271 11.8441 3.29264H11.8438C11.6147 3.29275 11.3951 3.38376 11.2331 3.54569C11.071 3.70763 10.9799 3.92724 10.9797 4.15629ZM5.09118 13.8607C4.38918 13.8287 4.00762 13.7118 3.75405 13.613C3.41789 13.4821 3.17803 13.3263 2.92585 13.0744C2.67367 12.8226 2.51756 12.583 2.38727 12.2468C2.28842 11.9934 2.17149 11.6117 2.13958 10.9098C2.10467 10.1508 2.0977 9.92286 2.0977 8.00011C2.0977 6.07737 2.10525 5.85002 2.13958 5.09045C2.17155 4.38848 2.28934 4.00757 2.38727 3.75338C2.51814 3.41723 2.67401 3.17738 2.92585 2.92521C3.17769 2.67304 3.41731 2.51694 3.75405 2.38665C4.0075 2.28781 4.38918 2.17088 5.09118 2.13897C5.85014 2.10406 6.07813 2.09709 8.00009 2.09709C9.92205 2.09709 10.1503 2.10452 10.9099 2.13908C11.6119 2.17105 11.9928 2.28884 12.247 2.38676C12.5832 2.51706 12.823 2.6735 13.0752 2.92532C13.3274 3.17715 13.4829 3.41734 13.6138 3.7535C13.7126 4.00694 13.8296 4.38859 13.8615 5.09057C13.8964 5.85014 13.9033 6.07748 13.9033 8.00023C13.9033 9.92297 13.8964 10.1503 13.8615 10.9099C13.8295 11.6119 13.712 11.9934 13.6138 12.247C13.4829 12.5831 13.327 12.823 13.0752 13.0746C12.8234 13.3262 12.5832 13.4823 12.247 13.6131C11.9935 13.712 11.6119 13.8289 10.9099 13.8608C10.1509 13.8957 9.92291 13.9027 8.00009 13.9027C6.07727 13.9027 5.84991 13.8957 5.09118 13.8608V13.8607ZM5.03156 0.843602C4.26504 0.878508 3.74127 1.00004 3.28385 1.17803C2.81041 1.36183 2.4091 1.60842 2.00836 2.0085C1.60762 2.40859 1.36166 2.80995 1.17785 3.28394C0.999858 3.74163 0.878317 4.2651 0.84341 5.03158C0.807927 5.79928 0.799805 6.04471 0.799805 8C0.799805 9.95529 0.807927 10.2007 0.84341 10.9684C0.878317 11.735 0.999858 12.2584 1.17785 12.7161C1.36166 13.1895 1.60768 13.5916 2.00836 13.9915C2.40904 14.3914 2.80984 14.6376 3.28385 14.822C3.74213 15 4.26504 15.1215 5.03156 15.1564C5.79968 15.1913 6.04472 15.2 8.00009 15.2C9.95546 15.2 10.2009 15.1919 10.9686 15.1564C11.7352 15.1215 12.2586 15 12.7163 14.822C13.1898 14.6376 13.5911 14.3916 13.9918 13.9915C14.3926 13.5914 14.638 13.1895 14.8223 12.7161C15.0003 12.2584 15.1224 11.7349 15.1568 10.9684C15.1917 10.2001 15.1998 9.95529 15.1998 8C15.1998 6.04471 15.1917 5.79928 15.1568 5.03158C15.1219 4.26504 15.0003 3.74134 14.8223 3.28394C14.638 2.81053 14.3919 2.40923 13.9918 2.0085C13.5917 1.60778 13.1898 1.36183 12.7169 1.17803C12.2586 1.00004 11.7351 0.877932 10.9692 0.843602C10.2014 0.808524 9.95604 0.799999 8.00096 0.799999C6.04588 0.799999 5.79997 0.808121 5.03185 0.843602" fill="white"/>
</g>
<defs>
<clipPath id="clip0_305_2033">
<rect width="16" height="16" fill="white"/>
</clipPath>
</defs>
</svg>
